<svg width="31" height="31" viewBox="0 0 31 31" fill="none" xmlns="http://www.w3.org/2000/svg">
<path d="M15.614 21.8137C17.0234 21.7716 18.3752 21.2444 19.4409 20.3211C20.3589 19.2522 20.8853 17.9024 20.9335 16.4942C19.5246 16.5393 18.1739 17.0661 17.1065 17.9867C16.1859 19.0541 15.6591 20.4048 15.614 21.8137ZM15.3078 22.2155C15.1911 22.2155 15.0792 22.2618 14.9966 22.3444C14.9141 22.4269 14.8677 22.5389 14.8677 22.6556V27.2862C14.8677 27.4029 14.9141 27.5149 14.9966 27.5974C15.0792 27.6799 15.1911 27.7263 15.3078 27.7263C15.4246 27.7263 15.5365 27.6799 15.619 27.5974C15.7016 27.5149 15.7479 27.4029 15.7479 27.2862V22.6747C15.7505 22.6153 15.741 22.556 15.7201 22.5004C15.6991 22.4448 15.6671 22.394 15.626 22.3511C15.5849 22.3082 15.5355 22.274 15.4808 22.2507C15.4261 22.2274 15.3673 22.2154 15.3078 22.2155ZM29.0466 15.3078C29.044 12.1953 27.9772 9.17733 26.0233 6.75458L25.5832 6.23794L19.4983 12.3037L15.8245 15.9967L15.0017 16.8195L14.4276 17.3935L6.23795 25.5832L6.75458 26.0233C8.77049 27.6462 11.2048 28.665 13.7758 28.9617C16.3468 29.2583 18.9492 28.8207 21.2817 27.6995C23.6142 26.5782 25.5815 24.8193 26.9557 22.6263C28.3299 20.4332 29.0548 17.8958 29.0466 15.3078ZM5.08986 24.4351L10.3711 19.1348L12.2845 17.2213L12.5333 16.9917L14.4468 15.0782L16.5516 12.9542L20.8569 8.66806L24.416 5.10899L23.8993 4.66889C21.2657 2.57652 17.9543 1.52613 14.5962 1.71781C11.238 1.9095 8.06766 3.32987 5.6892 5.70833C3.31075 8.08679 1.89037 11.2571 1.69868 14.6153C1.507 17.9735 2.55739 21.2848 4.64976 23.9185L5.08986 24.4351ZM30.6157 15.3078C30.6157 18.3354 29.7179 21.295 28.0358 23.8124C26.3538 26.3298 23.963 28.2918 21.1659 29.4504C18.3687 30.609 15.2909 30.9122 12.3214 30.3215C9.352 29.7309 6.6244 28.2729 4.48357 26.1321C2.34273 23.9913 0.884798 21.2637 0.294142 18.2942C-0.296513 15.3248 0.00663259 12.2469 1.16525 9.44977C2.32386 6.65263 4.2859 4.26188 6.80326 2.57983C9.32062 0.897788 12.2802 0 15.3078 0C19.3677 0 23.2613 1.61278 26.1321 4.48356C29.0029 7.35433 30.6157 11.2479 30.6157 15.3078ZM15.614 17.2213C15.614 17.3935 15.614 17.5083 15.614 17.5083C17.0241 17.4695 18.3769 16.9419 19.4409 16.0158C20.3615 14.9484 20.8883 13.5977 20.9335 12.1889H20.6656L15.614 17.2213ZM14.1023 18.7138L11.9018 20.876C12.8585 21.4495 13.9445 21.7721 15.0591 21.8137C15.015 20.6968 14.6856 19.6099 14.1023 18.6564V18.7138ZM9.70134 16.4559C9.7364 17.1071 9.85868 17.7507 10.0649 18.3694L11.6531 16.7621C11.0205 16.567 10.3632 16.4639 9.70134 16.4559ZM20.8378 7.65391C19.4271 7.6896 18.0732 8.21759 17.0108 9.14643C16.0777 10.2063 15.5491 11.5617 15.5183 12.9734L20.8378 7.65391ZM15.0973 13.0117C15.0522 11.6028 14.5254 10.2521 13.6048 9.1847C12.5375 8.26409 11.1867 7.73729 9.77788 7.69218C9.82299 9.101 10.3498 10.4518 11.2704 11.5191C12.3197 12.4525 13.6565 12.9993 15.0591 13.0691L15.0973 13.0117ZM17.0108 7.099C16.9212 5.66777 16.332 4.3134 15.3461 3.27205C14.3602 4.3134 13.771 5.66777 13.6814 7.099C13.7758 8.52909 14.3643 9.88191 15.3461 10.926C16.3089 9.89417 16.8896 8.56395 16.9917 7.15641L17.0108 7.099ZM11.2704 15.8819C10.3498 14.8145 9.82299 13.4637 9.77788 12.0549C11.1867 12.1 12.5375 12.6268 13.6048 13.5474C13.8423 13.786 14.054 14.049 14.2363 14.332L11.9975 16.5707C11.706 16.3922 11.4363 16.1803 11.1939 15.9393L11.2704 15.8819Z" fill="#EB6502"/>
</svg>