<svg width="31" height="31" viewBox="0 0 31 31" fill="none" xmlns="http://www.w3.org/2000/svg">
<path d="M24.3433 23.221C24.4896 23.3672 24.5718 23.5656 24.5718 23.7725C24.5718 23.9793 24.4896 24.1777 24.3433 24.324C24.1971 24.4702 23.9987 24.5524 23.7918 24.5524C23.585 24.5524 23.3866 24.4702 23.2403 24.324C22.8727 23.9563 22.9694 23.1823 22.8727 22.9114C23.1436 22.9114 23.9176 22.9114 24.2853 23.279L24.3433 23.221ZM22.3502 20.4151C22.4871 20.5485 22.5959 20.708 22.6702 20.8841C22.7445 21.0603 22.7828 21.2495 22.7828 21.4407C22.7828 21.6319 22.7445 21.8211 22.6702 21.9973C22.5959 22.1734 22.4871 22.3329 22.3502 22.4663C22.0861 22.7083 21.7409 22.8426 21.3827 22.8426C21.0244 22.8426 20.6792 22.7083 20.4151 22.4663L20.1055 22.1567C19.9762 22.0282 19.8038 21.9524 19.6217 21.9438C19.4058 21.9481 19.1946 21.88 19.0219 21.7503L18.5187 21.2859L15.3646 18.0737L15.2097 17.9188L15.5968 17.5318L16.0225 17.9576C17.0094 17.5899 17.0287 16.5256 18.093 16.1773L17.5125 15.5968L17.8995 15.2097L18.7703 16.0805L21.6149 18.9057C21.753 19.0889 21.8216 19.3152 21.8084 19.5443C21.8172 19.7359 21.9005 19.9164 22.0406 20.0474L22.3502 20.4151ZM14.9195 10.5849L10.5655 14.9388C10.5098 14.995 10.4435 15.0396 10.3704 15.07C10.2973 15.1004 10.219 15.1161 10.1398 15.1161C10.0607 15.1161 9.98233 15.1004 9.90926 15.07C9.8362 15.0396 9.76987 14.995 9.71411 14.9388L8.61112 13.8552C8.50224 13.7402 8.44156 13.5878 8.44156 13.4295C8.44156 13.2711 8.50224 13.1187 8.61112 13.0037L9.13359 12.4813L6.9663 10.2753C6.71775 10.067 6.51516 9.80944 6.37136 9.51882C6.22757 9.22819 6.14571 8.91086 6.13097 8.58694C6.11623 8.26301 6.16893 7.93956 6.28573 7.63707C6.40253 7.33459 6.58088 7.05965 6.80949 6.8297C7.0381 6.59974 7.31199 6.41978 7.61378 6.3012C7.91558 6.18263 8.23872 6.12804 8.56272 6.14088C8.88672 6.15372 9.20453 6.23372 9.496 6.3758C9.78746 6.51789 10.0462 6.71897 10.2559 6.96629L12.4426 9.15293L12.965 8.63046C13.0208 8.57429 13.0871 8.52972 13.1602 8.4993C13.2333 8.46888 13.3116 8.45321 13.3908 8.45321C13.4699 8.45321 13.5483 8.46888 13.6213 8.4993C13.6944 8.52972 13.7607 8.57429 13.8165 8.63046L14.9195 9.67541C14.9822 9.73338 15.0323 9.80371 15.0665 9.88197C15.1007 9.96023 15.1184 10.0447 15.1184 10.1301C15.1184 10.2156 15.1007 10.3001 15.0665 10.3783C15.0323 10.4566 14.9822 10.5269 14.9195 10.5849ZM12.6361 14.4551L13.5456 15.4806L13.1586 15.8677L11.9201 14.6292L14.6292 11.9395L15.8677 13.1779L15.4807 13.5456L14.6486 12.6941L12.6361 14.4551ZM15.4807 29.3552C12.3264 29.357 9.26677 28.2779 6.81149 26.2978L6.28902 25.8527L14.726 17.4157L15.113 17.0287L25.8527 6.28901L26.2978 6.81149C27.938 8.84887 28.968 11.3089 29.2687 13.9072C29.5694 16.5054 29.1285 19.1357 27.997 21.4938C26.8655 23.852 25.0896 25.8417 22.8746 27.2329C20.6597 28.6241 18.0962 29.3598 15.4807 29.3552ZM4.70225 24.1692C2.58627 21.5058 1.52401 18.157 1.71786 14.7609C1.91171 11.3648 3.34812 8.15874 5.75343 5.75343C8.15875 3.34812 11.3649 1.91171 14.761 1.71786C18.157 1.524 21.5058 2.58626 24.1692 4.70225L24.6916 5.14732L16.2547 13.5456L15.8677 13.9326L13.9326 15.8677L13.5456 16.2547L5.12797 24.6916L4.70225 24.1692ZM15.4807 0C12.4189 0 9.42585 0.907924 6.88007 2.60896C4.33429 4.31 2.35009 6.72774 1.1784 9.55646C0.00670747 12.3852 -0.299861 15.4978 0.297463 18.5008C0.894787 21.5037 2.36918 24.2621 4.53418 26.4271C6.69919 28.5921 9.45758 30.0665 12.4605 30.6638C15.4635 31.2612 18.5761 30.9546 21.4048 29.7829C24.2336 28.6112 26.6513 26.627 28.3523 24.0812C30.0534 21.5355 30.9613 18.5424 30.9613 15.4806C30.9613 11.3749 29.3303 7.43736 26.4271 4.53418C23.5239 1.63099 19.5864 0 15.4807 0V0Z" fill="#EB6502"/>
</svg>
