<svg width="17" height="16" viewBox="0 0 17 16" fill="none" xmlns="http://www.w3.org/2000/svg">
<path d="M13.1637 8.26453C13.1813 9.74476 12.6923 11.1836 11.7837 12.3257C10.875 13.4678 9.60542 14.2394 8.20009 14.5036C6.79475 14.7677 5.34457 14.5074 4.10682 13.7687C2.86908 13.0301 1.9238 11.8608 1.4387 10.4685C0.953598 9.07614 0.96004 7.55071 1.45688 6.16282C1.95372 4.77494 2.90884 3.61434 4.15278 2.88693C5.39671 2.15952 6.84904 1.91234 8.25209 2.18924C9.65514 2.46615 10.9182 3.24923 11.8172 4.39955L11.4201 4.77531C10.0045 6.13521 8.58883 7.513 7.10414 8.92658C6.03378 8.01402 4.8771 7.13724 3.65136 6.4394C3.56208 6.37771 3.45281 6.3553 3.34759 6.37711C3.24236 6.39893 3.14981 6.46317 3.09029 6.55571C3.03077 6.64825 3.00915 6.7615 3.03019 6.87056C3.05124 6.97962 3.11322 7.07555 3.2025 7.13724C4.37645 8.40767 5.46407 9.74968 6.55169 11.1096C6.74691 11.2861 7.00142 11.3757 7.25998 11.359C7.51855 11.3422 7.76031 11.2205 7.9328 11.0201C9.41749 9.23077 10.8504 7.44143 12.3006 5.65209L12.4559 5.47316C12.8687 6.31643 13.0874 7.24738 13.0947 8.19295L13.1637 8.26453ZM16.7546 0.0872429C16.7289 0.0596451 16.698 0.0376994 16.6639 0.0227116C16.6298 0.00772372 16.5931 0 16.5561 0C16.5191 0 16.4824 0.00772372 16.4483 0.0227116C16.4142 0.0376994 16.3833 0.0596451 16.3576 0.0872429C15.08 1.26821 13.837 2.46707 12.594 3.66592C11.4373 2.19592 9.7773 1.24603 7.96079 1.0147C6.14427 0.783362 4.31177 1.28847 2.8461 2.42451C1.38044 3.56055 0.394979 5.23963 0.0956001 7.111C-0.203779 8.98236 0.206078 10.9012 1.23955 12.4668C2.27302 14.0323 3.85016 15.1234 5.6415 15.5121C7.43284 15.9008 9.29981 15.5571 10.8524 14.5527C12.405 13.5483 13.523 11.961 13.9731 10.1223C14.4231 8.28364 14.1702 6.33585 13.2673 4.68585C14.4067 3.25437 15.5634 1.76922 16.7546 0.463004C16.7984 0.410901 16.8224 0.344176 16.8224 0.275124C16.8224 0.206071 16.7984 0.139346 16.7546 0.0872429Z" fill="#EB6502"/>
</svg>