<svg width="31" height="31" viewBox="0 0 31 31" fill="none" xmlns="http://www.w3.org/2000/svg">
<path d="M12.8102 11.9395H14.7453C14.8026 11.9552 14.853 11.9892 14.889 12.0364C14.925 12.0836 14.9445 12.1413 14.9445 12.2007C14.9445 12.26 14.925 12.3177 14.889 12.3649C14.853 12.4121 14.8026 12.4462 14.7453 12.4619H12.8102V11.9395ZM11.9782 16.8933L12.1717 16.6997L12.6554 16.2353L12.7909 16.0805L14.2616 14.6292H12.8102V14.068H14.7453L18.0156 10.8558C16.0805 10.7397 15.0743 11.7653 12.8102 11.2428V10.314H14.7453C14.7855 10.325 14.8277 10.3266 14.8687 10.3187C14.9096 10.3108 14.9482 10.2935 14.9813 10.2682C15.0145 10.2429 15.0414 10.2103 15.0599 10.1729C15.0784 10.1356 15.088 10.0944 15.088 10.0527C15.088 10.011 15.0784 9.96991 15.0599 9.93254C15.0414 9.89518 15.0145 9.86258 14.9813 9.8373C14.9482 9.81202 14.9096 9.79474 14.8687 9.78679C14.8277 9.77885 14.7855 9.78047 14.7453 9.79151H12.8102V8.18539H14.7453C14.8026 8.16967 14.853 8.1356 14.889 8.0884C14.925 8.04121 14.9445 7.9835 14.9445 7.92416C14.9445 7.86481 14.925 7.80711 14.889 7.75991C14.853 7.71272 14.8026 7.67864 14.7453 7.66292H12.8102V5.80524H18.2091V10.6623L19.0412 9.83021V5.80524H19.7959C19.968 5.77704 20.1245 5.68858 20.2374 5.55566C20.3503 5.42273 20.4123 5.254 20.4123 5.07959C20.4123 4.90518 20.3503 4.73644 20.2374 4.60352C20.1245 4.47059 19.968 4.38213 19.7959 4.35393H11.2235C11.1183 4.33669 11.0105 4.34254 10.9078 4.37107C10.8051 4.39961 10.7098 4.45014 10.6285 4.51917C10.5473 4.5882 10.482 4.67408 10.4372 4.77085C10.3924 4.86762 10.3693 4.97296 10.3693 5.07959C10.3693 5.18621 10.3924 5.29156 10.4372 5.38833C10.482 5.4851 10.5473 5.57098 10.6285 5.64001C10.7098 5.70904 10.8051 5.75957 10.9078 5.7881C11.0105 5.81663 11.1183 5.82248 11.2235 5.80524H11.9782V16.8933ZM14.7453 21.0343H12.8102V20.5119H14.7453C14.8026 20.5276 14.853 20.5617 14.889 20.6088C14.925 20.656 14.9445 20.7137 14.9445 20.7731C14.9445 20.8324 14.925 20.8901 14.889 20.9373C14.853 20.9845 14.8026 21.0186 14.7453 21.0343ZM14.7453 23.3758H12.8102V22.834H14.7453C14.8172 22.834 14.8861 22.8625 14.9369 22.9133C14.9877 22.9641 15.0162 23.033 15.0162 23.1049C15.0192 23.1412 15.0142 23.1777 15.0016 23.2119C14.989 23.2461 14.9691 23.2771 14.9434 23.3029C14.9176 23.3287 14.8865 23.3485 14.8524 23.3611C14.8182 23.3737 14.7816 23.3787 14.7453 23.3758ZM15.0162 18.6348C15.0162 18.7067 14.9877 18.7756 14.9369 18.8264C14.8861 18.8772 14.8172 18.9057 14.7453 18.9057H14.2422L11.9782 21.1504V23.666C11.9782 24.1285 12.0693 24.5865 12.2462 25.0138C12.4232 25.4411 12.6827 25.8293 13.0097 26.1564C13.3367 26.4834 13.725 26.7428 14.1523 26.9198C14.5795 27.0968 15.0375 27.1879 15.5 27.1879C15.9625 27.1879 16.4205 27.0968 16.8478 26.9198C17.275 26.7428 17.6633 26.4834 17.9903 26.1564C18.3174 25.8293 18.5768 25.4411 18.7538 25.0138C18.9308 24.5865 19.0219 24.1285 19.0219 23.666V14.1067L14.7647 18.3639C14.828 18.3768 14.8853 18.4104 14.9273 18.4595C14.9694 18.5086 14.9939 18.5703 14.9969 18.6348H15.0162ZM15.4807 29.3745C12.333 29.3719 9.28095 28.2931 6.83084 26.3171L6.30837 25.872L25.8527 6.30836L26.2978 6.83084C27.938 8.86822 28.968 11.3283 29.2687 13.9265C29.5694 16.5247 29.1285 19.155 27.997 21.5132C26.8655 23.8714 25.0896 25.8611 22.8746 27.2522C20.6597 28.6434 18.0962 29.3792 15.4807 29.3745ZM4.70225 24.1692C2.58627 21.5058 1.52401 18.157 1.71786 14.7609C1.91171 11.3648 3.34812 8.15874 5.75343 5.75343C8.15875 3.34812 11.3649 1.91171 14.761 1.71786C18.157 1.524 21.5058 2.58626 24.1692 4.70225L24.6916 5.14732L19.0219 10.8171L18.8477 10.9913L18.2091 11.6105L13.5456 16.216L13.0231 16.7384L12.7328 17.0287L11.9008 17.8608L5.14732 24.6916L4.70225 24.1692ZM15.4807 0C12.4189 0 9.42585 0.907924 6.88007 2.60896C4.33429 4.31 2.35009 6.72774 1.1784 9.55646C0.00670747 12.3852 -0.299861 15.4978 0.297463 18.5008C0.894787 21.5037 2.36918 24.2621 4.53418 26.4271C6.69919 28.5921 9.45758 30.0665 12.4605 30.6638C15.4635 31.2612 18.5761 30.9546 21.4048 29.7829C24.2336 28.6112 26.6513 26.627 28.3523 24.0812C30.0534 21.5355 30.9613 18.5424 30.9613 15.4806C30.9613 11.3749 29.3303 7.43736 26.4271 4.53418C23.5239 1.63099 19.5864 0 15.4807 0V0Z" fill="#EB6502"/>
</svg>