<svg width="31" height="31" viewBox="0 0 31 31" fill="none" xmlns="http://www.w3.org/2000/svg">
<path d="M10.4301 18.4413L9.57866 19.3508V12.8683C9.57799 12.103 9.68216 11.3412 9.88827 10.6042C9.99274 10.2134 10.1286 9.83154 10.2946 9.46255C10.4509 9.10838 10.632 8.76567 10.8365 8.43695C10.9719 8.20474 11.1267 7.97253 11.3009 7.75968C11.469 7.54268 11.65 7.33591 11.8427 7.14045L12.0749 6.88889C12.2491 6.71473 12.4426 6.50187 12.6167 6.28901L13.1005 5.80524C12.9356 5.7369 12.7945 5.62157 12.6948 5.47361C12.595 5.32566 12.5409 5.15161 12.5393 4.97316C12.5393 4.73708 12.6331 4.51067 12.8 4.34374C12.967 4.1768 13.1934 4.08302 13.4295 4.08302H17.5705C17.7723 4.10018 17.9622 4.18562 18.1089 4.32525C18.2555 4.46487 18.3502 4.65033 18.3773 4.85101C18.4043 5.0517 18.3622 5.25561 18.2577 5.42909C18.1533 5.60257 17.9928 5.73526 17.8028 5.80524C17.915 5.96186 18.0378 6.11057 18.1704 6.25031C18.4026 6.52122 18.6542 6.75343 18.867 6.96629L19.196 7.29526C19.5936 7.69944 19.9442 8.14737 20.241 8.63046L19.6217 9.24969C19.2536 8.63203 18.7972 8.07141 18.2672 7.58552C17.7069 7.06888 17.2303 6.46829 16.8546 5.80524H14.068C13.586 6.49276 13.0489 7.13992 12.4619 7.74032C12.131 8.09051 11.845 8.48053 11.6105 8.90137C11.2395 9.50442 10.953 10.1555 10.7591 10.8365C13.4875 11.417 16.0225 8.57241 19.4476 9.4432L10.4301 18.4413ZM21.2859 11.7846C21.3112 12.1454 21.3112 12.5075 21.2859 12.8683V25.3302C21.3052 25.426 21.3052 25.5247 21.2859 25.6205C21.2484 25.7114 21.1885 25.7913 21.1117 25.8527C21.0135 25.9592 20.8853 26.0334 20.7441 26.0655H10.314C10.1138 26.0655 9.92188 25.986 9.78035 25.8445C9.63882 25.703 9.55931 25.511 9.55931 25.3109V23.5499L20.5699 12.578L21.2859 11.7846ZM15.4807 29.3552C12.3259 29.3601 9.26522 28.2807 6.81149 26.2978L6.28902 25.8527L20.4732 11.6105L21.2859 10.9719L25.9301 6.30836L26.3752 6.83084C28.0218 8.87132 29.0548 11.3377 29.3537 13.9427C29.6526 16.5476 29.2052 19.1839 28.0635 21.5443C26.9218 23.9048 25.1329 25.8922 22.9051 27.2751C20.6774 28.6579 18.1026 29.3793 15.4807 29.3552ZM4.70225 24.1692C2.58627 21.5058 1.52401 18.157 1.71786 14.7609C1.91171 11.3648 3.34812 8.15874 5.75343 5.75343C8.15875 3.34812 11.3649 1.91171 14.761 1.71786C18.157 1.524 21.5058 2.58626 24.1692 4.70225L24.6916 5.14732L20.5893 9.24969L20.1055 9.67541L19.9507 9.83021L10.4301 19.3508L9.57866 20.2022L5.12797 24.6916L4.70225 24.1692ZM15.4807 0C12.4189 0 9.42585 0.907924 6.88007 2.60896C4.33429 4.31 2.35009 6.72774 1.1784 9.55646C0.00670747 12.3852 -0.299861 15.4978 0.297463 18.5008C0.894787 21.5037 2.36918 24.2621 4.53418 26.4271C6.69919 28.5921 9.45758 30.0665 12.4605 30.6638C15.4635 31.2612 18.5761 30.9546 21.4048 29.7829C24.2336 28.6112 26.6513 26.627 28.3523 24.0812C30.0534 21.5355 30.9613 18.5424 30.9613 15.4806C30.9613 11.3749 29.3303 7.43736 26.4271 4.53418C23.5239 1.63099 19.5864 0 15.4807 0V0Z" fill="#EB6502"/>
</svg>